# xmcd
#
# Track frame offsets:
#	150
#	14783
#	26214
#	34841
#	49677
#	64954
#	82161
#	96161
#	104796
#	116193
#	130160
#	139355
#	153048
#	166775
#	180340
#	192402
#	207791
#	213827
#	229231
#	243290
#
# Disc length: 3407
#
# Revision: 7
# Processed by: cddbd v1.5.1PL0 Copyright (c) Steve Scherf et al.
# Submitted via: CDex 1.51
# Normalized: r6:TDELIM( - ),TSWAP
#
DISCID=220d4d14
DTITLE=RAT PACK - SOME ENCHANTED EVENING
DYEAR=2004
DGENRE=Jazz
TTITLE0=frank sinatra - fools rush in
TTITLE1=dean martin - dont let the stars get in your eyes
TTITLE2=sammy davis jnr - second best secret agent in the world
TTITLE3=frank sinatra - i have but one heart
TTITLE4=dean martin - if you were the only girl in the world
TTITLE5=sammy davis jnr - in the ghetto
TTITLE6=frank sinatra - some enchanted evening
TTITLE7=dean martin - i dont care if the sun dont shine
TTITLE8=sammy davis jnr - as long as she needs me
TTITLE9=frank sinatra - what'll i do
TTITLE10=dean martin - someday youll want me to want you
TTITLE11=sammy davis jnr - i have dreamed
TTITLE12=frank sinatra - dream
TTITLE13=dean martin - tarra talarra talar
TTITLE14=sammy davis jnr - the impossible dream
TTITLE15=frank sinatra - mam'selle
TTITLE16=dean martin - swanee
TTITLE17=sammy davis jnr - this guys in love with you
TTITLE18=frank sinatra - they say its wonderful
TTITLE19=dean martin - the sweetheart of sigma chi
EXTD=YEAR: 2004
EXTT0=
EXTT1=
EXTT2=
EXTT3=
EXTT4=
EXTT5=
EXTT6=
EXTT7=
EXTT8=
EXTT9=
EXTT10=
EXTT11=
EXTT12=
EXTT13=
EXTT14=
EXTT15=
EXTT16=
EXTT17=
EXTT18=
EXTT19=
PLAYORDER=
